<svg width="325" height="218" viewBox="0 0 325 218" fill="none" xmlns="http://www.w3.org/2000/svg">
<path d="M115.311 180.738L118.503 181.657V178.336V161.517V159.562L116.605 159.091L32.6611 138.26L116.646 115.906L118.503 115.412V113.49V96.1109V94.2015L116.661 93.699L32.6641 70.7882L116.615 49.5735L118.503 49.0965V47.1497V29.7703V26.4437L115.308 27.3689L4.30466 59.5115L2.5 60.034V61.9128L2.5 79.4791V81.3753L4.32604 81.8865L83.8402 104.147L4.32604 126.407L2.5 126.918L2.5 128.814L2.5 146.38V148.262L4.30839 148.783L115.311 180.738ZM209.689 27.6131L206.497 26.6943V30.0156V46.8343V48.7898L208.395 49.2607L292.339 70.0916L208.354 92.4453L206.497 92.9396V94.8612V112.241V114.15L208.339 114.652L292.336 137.563L208.385 158.778L206.497 159.255V161.202V178.581V181.908L209.692 180.983L320.695 148.84L322.5 148.317V146.439V128.872V126.976L320.674 126.465L241.16 104.205L320.674 81.9449L322.5 81.4337V79.5374V61.9712V60.0893L320.692 59.5687L209.689 27.6131ZM118.324 210.449L117.322 213.571L120.598 213.711L139.011 214.498L140.917 214.579L141.499 212.762L207.161 7.5401L208.159 4.42038L204.887 4.28053L186.676 3.50228L184.771 3.42089L184.189 5.23599L118.324 210.449Z" fill="#1677FF" stroke="#1677FF" stroke-width="5"/>
</svg>
